<svg width="21" height="12" viewBox="0 0 21 12" fill="none" xmlns="http://www.w3.org/2000/svg">
<path d="M20.224 10.8638C20.0665 11.0223 19.8552 11.1111 19.6351 11.1111C19.415 11.1111 19.2037 11.0223 19.0462 10.8638L10.2325 2.0051L1.42064 10.8638C1.26314 11.0223 1.05185 11.1111 0.831745 11.1111C0.611645 11.1111 0.400343 11.0223 0.242844 10.8638C0.166143 10.7867 0.105042 10.6945 0.0634422 10.5928C0.0217419 10.491 0.000343323 10.3816 0.000343323 10.2711C0.000343323 10.1606 0.0217419 10.0513 0.0634422 9.9495C0.105042 9.8477 0.166143 9.7556 0.242844 9.6785L9.61724 0.257999C9.78184 0.0925994 10.0026 0 10.2325 0C10.4624 0 10.6832 0.0925994 10.8478 0.257999L20.2222 9.6785C20.299 9.7556 20.36 9.8477 20.4017 9.9495C20.4433 10.0513 20.4648 10.1606 20.4648 10.2711C20.4648 10.3816 20.4433 10.491 20.4017 10.5928C20.36 10.6945 20.299 10.7867 20.2222 10.8638H20.224Z" fill="#AFAFAF"/>
</svg>
