<svg width="21" height="12" viewBox="0 0 21 12" fill="none" xmlns="http://www.w3.org/2000/svg">
<path d="M0.2408 0.247528C0.3983 0.0890284 0.6096 0.000228882 0.8297 0.000228882C1.0498 0.000228882 1.2611 0.0890284 1.4186 0.247528L10.2323 9.10623L19.0442 0.247528C19.2017 0.0890284 19.413 0.000228882 19.6331 0.000228882C19.8532 0.000228882 20.0645 0.0890284 20.222 0.247528C20.2987 0.324628 20.3598 0.416828 20.4014 0.518528C20.4431 0.620328 20.4645 0.729729 20.4645 0.840229C20.4645 0.950729 20.4431 1.06003 20.4014 1.16183C20.3598 1.26363 20.2987 1.35573 20.222 1.43283L10.8476 10.8533C10.683 11.0187 10.4622 11.1113 10.2323 11.1113C10.0024 11.1113 9.7816 11.0187 9.617 10.8533L0.2426 1.43283C0.1658 1.35573 0.1048 1.26363 0.0630999 1.16183C0.0214999 1.06003 0 0.950729 0 0.840229C0 0.729729 0.0214999 0.620328 0.0630999 0.518528C0.1048 0.416828 0.1658 0.324628 0.2426 0.247528H0.2408Z" fill="#AFAFAF"/>
</svg>
