<svg width="113" height="65" viewBox="0 0 113 65" fill="none" xmlns="http://www.w3.org/2000/svg">
<path fill-rule="evenodd" clip-rule="evenodd" d="M78.1075 3.19152C78.1075 2.50758 78.3835 1.85098 78.876 1.36156L78.876 1.36716C79.1156 1.12851 79.4021 0.938952 79.7181 0.809373C80.0344 0.680104 80.3744 0.613295 80.7178 0.613295C81.0611 0.613295 81.4008 0.680105 81.7171 0.809373C82.0334 0.938953 82.3196 1.12851 82.5592 1.36716L111.503 29.7755C112.017 30.287 112.305 30.9731 112.305 31.6875C112.305 32.4019 112.017 33.088 111.503 33.5995L82.5592 63.4516C82.3196 63.6899 82.0334 63.8798 81.7171 64.009C81.4008 64.1386 81.0611 64.2051 80.7177 64.2051C80.3744 64.2051 80.0344 64.1386 79.7181 64.009C79.4021 63.8798 79.1156 63.6899 78.876 63.4516C78.3835 62.9621 78.1075 62.3055 78.1075 61.6216C78.1075 60.9377 78.3835 60.2811 78.876 59.7916L103.171 34.6875L3.52929 34.6875C1.87244 34.6875 0.529291 33.3443 0.529291 31.6875C0.529292 30.0306 1.87244 28.6875 3.52929 28.6875L103.014 28.6875L78.876 5.02148C78.3835 4.53206 78.1075 3.87547 78.1075 3.19152Z" fill="#0080C6"/>
</svg>
