<svg width="113" height="64" viewBox="0 0 113 64" fill="none" xmlns="http://www.w3.org/2000/svg">
<path fill-rule="evenodd" clip-rule="evenodd" d="M35.1562 61.0722C35.1562 61.7561 34.8802 62.4127 34.3877 62.9021L34.3877 62.8965C34.1481 63.1352 33.8616 63.3247 33.5456 63.4543C33.2292 63.5836 32.8893 63.6504 32.5459 63.6504C32.2025 63.6504 31.8629 63.5836 31.5466 63.4543C31.2302 63.3247 30.944 63.1352 30.7045 62.8965L1.76039 34.4882C1.24642 33.9767 0.958674 33.2906 0.958674 32.5762C0.958674 31.8618 1.24642 31.1756 1.76039 30.6642L30.7045 0.812111C30.944 0.573773 31.2302 0.383904 31.5466 0.254635C31.8629 0.125058 32.2026 0.0585638 32.5459 0.0585639C32.8893 0.0585639 33.2292 0.125058 33.5456 0.254636C33.8616 0.383904 34.1481 0.573773 34.3877 0.812112C34.8802 1.30153 35.1562 1.95813 35.1562 2.64208C35.1562 3.32602 34.8802 3.98261 34.3877 4.47203L10.0927 29.5762L109.734 29.5762C111.391 29.5762 112.734 30.9193 112.734 32.5762C112.734 34.233 111.391 35.5762 109.734 35.5762L10.2493 35.5762L34.3877 59.2422C34.8802 59.7316 35.1562 60.3882 35.1562 61.0722Z" fill="#0080C6"/>
</svg>
